<svg height="128" width="128" viewBox="0 0 21 21" version="1.0" xmlns="http://www.w3.org/2000/svg" class="h-full w-full"><path fill="#FFFFFF" d="M0,0 h21v21H0z" shape-rendering="crispEdges"></path><path fill="#000000" d="M0 0h7v1H0zM8 0h1v1H8zM14,0 h7v1H14zM0 1h1v1H0zM6 1h1v1H6zM11 1h2v1H11zM14 1h1v1H14zM20,1 h1v1H20zM0 2h1v1H0zM2 2h3v1H2zM6 2h1v1H6zM10 2h2v1H10zM14 2h1v1H14zM16 2h3v1H16zM20,2 h1v1H20zM0 3h1v1H0zM2 3h3v1H2zM6 3h1v1H6zM9 3h1v1H9zM11 3h2v1H11zM14 3h1v1H14zM16 3h3v1H16zM20,3 h1v1H20zM0 4h1v1H0zM2 4h3v1H2zM6 4h1v1H6zM8 4h1v1H8zM10 4h2v1H10zM14 4h1v1H14zM16 4h3v1H16zM20,4 h1v1H20zM0 5h1v1H0zM6 5h1v1H6zM8 5h3v1H8zM12 5h1v1H12zM14 5h1v1H14zM20,5 h1v1H20zM0 6h7v1H0zM8 6h1v1H8zM10 6h1v1H10zM12 6h1v1H12zM14,6 h7v1H14zM9 7h3v1H9zM1 8h7v1H1zM9 8h1v1H9zM11 8h2v1H11zM15 8h2v1H15zM20,8 h1v1H20zM0 9h4v1H0zM5 9h1v1H5zM7 9h2v1H7zM12 9h1v1H12zM16 9h1v1H16zM18 9h2v1H18zM0 10h2v1H0zM3 10h2v1H3zM6 10h1v1H6zM8 10h5v1H8zM14 10h2v1H14zM17 10h3v1H17zM1 11h1v1H1zM4 11h2v1H4zM7 11h1v1H7zM9 11h1v1H9zM11 11h5v1H11zM17 11h1v1H17zM19,11 h2v1H19zM0 12h4v1H0zM5 12h5v1H5zM11 12h1v1H11zM14 12h1v1H14zM16 12h2v1H16zM19,12 h2v1H19zM8 13h1v1H8zM10 13h1v1H10zM15 13h1v1H15zM17 13h2v1H17zM0 14h7v1H0zM8 14h1v1H8zM18 14h1v1H18zM0 15h1v1H0zM6 15h1v1H6zM8 15h1v1H8zM10 15h1v1H10zM17 15h1v1H17zM20,15 h1v1H20zM0 16h1v1H0zM2 16h3v1H2zM6 16h1v1H6zM8 16h2v1H8zM11 16h2v1H11zM15 16h2v1H15zM18 16h2v1H18zM0 17h1v1H0zM2 17h3v1H2zM6 17h1v1H6zM8 17h2v1H8zM11 17h4v1H11zM16 17h2v1H16zM0 18h1v1H0zM2 18h3v1H2zM6 18h1v1H6zM8 18h1v1H8zM10 18h1v1H10zM12 18h1v1H12zM14 18h2v1H14zM17 18h2v1H17zM0 19h1v1H0zM6 19h1v1H6zM8 19h1v1H8zM10 19h5v1H10zM16 19h3v1H16zM20,19 h1v1H20zM0 20h7v1H0zM12 20h1v1H12zM15 20h4v1H15z" shape-rendering="crispEdges"></path></svg>